<svg width="539" height="539" viewBox="0 0 539 539" fill="none" xmlns="http://www.w3.org/2000/svg">
<path d="M276.618 497.642L276.458 527.282L258.218 527.183L258.245 522.223L270.565 522.29L270.607 514.57L260.087 514.513L260.114 509.553L270.633 509.61L270.699 497.61L276.618 497.642Z" fill="white"/>
<path d="M248.827 496.738L246.233 518.987L241.465 518.432L241.487 514.447L241.368 514.433C240.377 515.794 239.28 516.794 238.078 517.433C236.876 518.071 235.693 518.322 234.527 518.186C233.891 518.112 233.394 518.001 233.036 517.852C232.648 517.726 232.303 517.578 232 517.409L233.542 512.474C233.953 512.629 234.328 512.754 234.666 512.847C234.975 512.963 235.381 513.051 235.884 513.109C236.732 513.208 237.671 512.982 238.702 512.431C239.706 511.877 240.619 510.842 241.439 509.327L242.987 496.057L248.827 496.738Z" fill="white"/>
<path d="M217.347 490.999C219.374 491.466 221.101 492.343 222.528 493.63C223.955 494.918 224.965 496.532 225.557 498.475C226.122 500.412 226.13 502.576 225.578 504.966C225.171 506.733 224.532 508.255 223.663 509.532C222.768 510.804 221.725 511.822 220.536 512.588C219.315 513.373 218.047 513.888 216.732 514.132C215.385 514.396 214.061 514.378 212.762 514.079C210.761 513.617 209.19 512.776 208.049 511.555C206.901 510.36 206.173 508.892 205.863 507.151C205.521 505.43 205.584 503.556 206.051 501.529C206.171 501.01 206.314 500.509 206.48 500.027C206.64 499.571 206.791 499.21 206.935 498.942L220.382 502.043C220.496 500.838 220.373 499.77 220.013 498.838C219.653 497.907 219.093 497.135 218.331 496.521C217.563 495.934 216.634 495.514 215.543 495.262C214.659 495.058 213.801 494.984 212.967 495.038C212.128 495.118 211.248 495.312 210.329 495.619L209.189 491.662C210.422 491.18 211.752 490.871 213.18 490.735C214.607 490.599 215.996 490.687 217.347 490.999ZM219.609 505.929L210.683 503.87C210.348 505.325 210.419 506.56 210.897 507.573C211.343 508.606 212.28 509.288 213.709 509.617C214.463 509.791 215.219 509.774 215.979 509.566C216.732 509.384 217.427 508.983 218.062 508.364C218.692 507.77 219.207 506.959 219.609 505.929Z" fill="white"/>
<path d="M190.417 482.891C192.371 483.604 193.977 484.687 195.235 486.14C196.493 487.593 197.296 489.32 197.644 491.321C197.968 493.313 197.708 495.461 196.867 497.765C196.245 499.469 195.424 500.901 194.404 502.061C193.359 503.213 192.199 504.095 190.925 504.708C189.616 505.338 188.294 505.693 186.959 505.773C185.59 505.869 184.279 505.688 183.027 505.231C181.098 504.527 179.642 503.498 178.66 502.146C177.668 500.819 177.126 499.272 177.032 497.506C176.905 495.757 177.198 493.905 177.911 491.951C178.094 491.45 178.298 490.971 178.521 490.513C178.736 490.08 178.931 489.74 179.107 489.492L192.07 494.225C192.331 493.043 192.341 491.968 192.098 490.999C191.856 490.031 191.394 489.195 190.714 488.492C190.025 487.815 189.154 487.284 188.102 486.9C187.25 486.589 186.408 486.409 185.574 486.36C184.731 486.336 183.834 486.42 182.884 486.613L182.24 482.545C183.523 482.219 184.881 482.076 186.314 482.116C187.747 482.157 189.115 482.415 190.417 482.891ZM190.825 497.986L182.22 494.844C181.708 496.247 181.627 497.481 181.976 498.545C182.291 499.625 183.138 500.417 184.515 500.92C185.242 501.185 185.995 501.262 186.774 501.149C187.544 501.061 188.283 500.749 188.99 500.212C189.688 499.7 190.299 498.958 190.825 497.986Z" fill="white"/>
<path d="M150.221 464.458L125.557 483.435L119.801 479.451L128.875 449.684L134.006 453.236L128.672 468.322C128.165 469.851 127.616 471.417 127.026 473.02C126.399 474.629 125.824 476.209 125.301 477.761L125.433 477.852C126.65 476.749 127.916 475.646 129.23 474.545C130.521 473.428 131.783 472.355 133.014 471.326L145.287 461.044L150.221 464.458ZM141.061 467.361L138.443 471.144L126.865 463.131L129.483 459.348L141.061 467.361Z" fill="white"/>
<path d="M118.679 440.044C119.798 441.034 120.741 442.261 121.511 443.726C122.26 445.172 122.753 446.606 122.991 448.028L118.519 449.037C118.275 447.824 117.944 446.729 117.525 445.754C117.069 444.78 116.442 443.94 115.643 443.233C114.805 442.491 114.054 442.111 113.392 442.095C112.692 442.081 112.113 442.333 111.653 442.853C111.282 443.272 111.142 443.771 111.234 444.352C111.309 444.952 111.518 445.6 111.863 446.297C112.19 447.014 112.546 447.738 112.93 448.47C113.382 449.369 113.78 450.327 114.125 451.345C114.451 452.345 114.569 453.358 114.48 454.383C114.374 455.429 113.906 456.421 113.075 457.359C112.191 458.358 111.154 459.006 109.963 459.306C108.755 459.625 107.497 459.598 106.189 459.224C104.862 458.832 103.559 458.071 102.281 456.94C101.063 455.862 100.171 454.698 99.6034 453.448C99.0162 452.18 98.6217 450.976 98.42 449.836L102.756 448.92C102.967 449.89 103.256 450.769 103.626 451.559C103.975 452.331 104.459 452.991 105.078 453.539C105.857 454.228 106.558 454.582 107.183 454.601C107.807 454.62 108.332 454.389 108.756 453.91C109.11 453.511 109.26 453.039 109.208 452.494C109.138 451.969 108.932 451.378 108.59 450.718C108.248 450.059 107.884 449.363 107.499 448.631C107.117 447.937 106.78 447.211 106.488 446.454C106.159 445.7 105.933 444.929 105.809 444.144C105.686 443.358 105.742 442.57 105.977 441.781C106.175 440.995 106.618 440.212 107.308 439.433C108.174 438.455 109.229 437.786 110.472 437.427C111.679 437.07 112.993 437.094 114.416 437.499C115.801 437.905 117.222 438.754 118.679 440.044Z" fill="white"/>
<path d="M101.37 423.063C102.377 424.166 103.185 425.486 103.794 427.024C104.386 428.542 104.724 430.021 104.81 431.459L100.255 431.988C100.142 430.756 99.9287 429.632 99.6163 428.618C99.2663 427.601 98.7317 426.699 98.0126 425.911C97.2575 425.084 96.5516 424.627 95.8949 424.541C95.2005 424.452 94.5973 424.642 94.0852 425.109C93.6716 425.487 93.4798 425.969 93.5097 426.555C93.5198 427.16 93.6593 427.827 93.9281 428.556C94.1771 429.304 94.454 430.062 94.7587 430.831C95.1122 431.772 95.4066 432.767 95.6419 433.816C95.8593 434.845 95.8694 435.865 95.6724 436.875C95.4556 437.904 94.8844 438.84 93.9587 439.685C92.9739 440.584 91.8736 441.119 90.6578 441.29C89.4222 441.479 88.1743 441.318 86.914 440.808C85.6358 440.278 84.4214 439.382 83.2708 438.122C82.1741 436.921 81.4101 435.668 80.9788 434.365C80.5294 433.042 80.265 431.803 80.1855 430.648L84.5947 430.198C84.7007 431.184 84.8954 432.09 85.1787 432.914C85.444 433.719 85.8553 434.427 86.4126 435.037C87.1138 435.806 87.7739 436.232 88.3929 436.317C89.0119 436.402 89.5578 436.228 90.0305 435.797C90.4244 435.437 90.6244 434.984 90.6304 434.437C90.6168 433.908 90.4748 433.297 90.2043 432.605C89.9338 431.914 89.6462 431.183 89.3415 430.414C89.0351 429.683 88.777 428.926 88.5674 428.142C88.32 427.357 88.1767 426.567 88.1374 425.773C88.0982 424.978 88.2374 424.201 88.5551 423.442C88.8352 422.68 89.3593 421.949 90.1275 421.248C91.0925 420.367 92.2125 419.814 93.4875 419.589C94.7247 419.363 96.0291 419.526 97.4007 420.079C98.7346 420.631 100.058 421.625 101.37 423.063Z" fill="white"/>
<path d="M84.0211 401.67C85.238 403.357 85.9594 405.155 86.1854 407.063C86.4114 408.972 86.1071 410.852 85.2726 412.703C84.4225 414.533 83.0026 416.166 81.013 417.601C79.5424 418.662 78.0594 419.386 76.5639 419.775C75.0528 420.142 73.5978 420.221 72.1987 420.014C70.7624 419.801 69.4692 419.352 68.319 418.67C67.1316 417.981 66.1478 417.096 65.3677 416.014C64.1664 414.349 63.5386 412.681 63.4842 411.011C63.4083 409.356 63.8271 407.771 64.7407 406.257C65.617 404.737 66.8986 403.369 68.5855 402.152C69.018 401.84 69.4553 401.557 69.8974 401.304C70.3179 401.066 70.6705 400.894 70.9552 400.788L79.029 411.979C79.9085 411.147 80.5197 410.263 80.8625 409.325C81.2053 408.387 81.2923 407.436 81.1235 406.473C80.933 405.525 80.5102 404.597 79.8549 403.689C79.3244 402.954 78.7279 402.332 78.0652 401.824C77.3809 401.331 76.5915 400.897 75.6969 400.523L77.4464 396.795C78.6916 397.245 79.8958 397.889 81.0592 398.727C82.2225 399.564 83.2098 400.545 84.0211 401.67ZM75.8876 414.393L70.5285 406.965C69.3174 407.838 68.5579 408.814 68.2498 409.891C67.9046 410.962 68.161 412.092 69.0191 413.282C69.4715 413.909 70.0519 414.394 70.7603 414.738C71.4471 415.098 72.2337 415.254 73.1201 415.206C73.9848 415.174 74.9073 414.903 75.8876 414.393Z" fill="white"/>
<path d="M70.6985 380.719C71.4276 382.022 71.9137 383.492 72.1568 385.128C72.3869 386.741 72.3798 388.257 72.1353 389.677L67.5804 389.155C67.7503 387.929 67.7987 386.787 67.7256 385.728C67.6163 384.658 67.3012 383.658 66.7804 382.727C66.2336 381.75 65.6504 381.144 65.0306 380.91C64.3746 380.666 63.7441 380.713 63.139 381.052C62.6502 381.325 62.3536 381.751 62.2492 382.329C62.1214 382.92 62.1053 383.601 62.2008 384.373C62.2731 385.157 62.37 385.958 62.4915 386.777C62.6214 387.773 62.6814 388.809 62.6717 389.884C62.6489 390.936 62.4265 391.931 62.0045 392.87C61.5592 393.822 60.7897 394.604 59.6959 395.216C58.5322 395.867 57.339 396.137 56.1161 396.027C54.87 395.929 53.6915 395.489 52.5806 394.704C51.4567 393.897 50.4781 392.749 49.6449 391.259C48.8507 389.84 48.392 388.446 48.2689 387.079C48.1326 385.688 48.1574 384.422 48.3431 383.279L52.7389 383.845C52.6175 384.83 52.6008 385.756 52.6888 386.623C52.7638 387.467 53.0031 388.25 53.4067 388.971C53.9145 389.879 54.4601 390.445 55.0435 390.668C55.627 390.892 56.198 390.847 56.7565 390.535C57.2219 390.275 57.5199 389.879 57.6505 389.347C57.7577 388.829 57.7584 388.202 57.6527 387.467C57.5469 386.732 57.4332 385.955 57.3117 385.137C57.1798 384.355 57.1011 383.559 57.0754 382.748C57.0134 381.927 57.0537 381.126 57.1965 380.343C57.3392 379.56 57.6518 378.835 58.1341 378.168C58.5802 377.491 59.2571 376.898 60.1647 376.391C61.3051 375.753 62.5216 375.469 63.8142 375.541C65.0706 375.602 66.3036 376.058 67.5131 376.909C68.6863 377.75 69.7481 379.02 70.6985 380.719Z" fill="white"/>
<path d="M59.9598 358.978C60.5463 360.351 60.8736 361.865 60.9416 363.517C60.9992 365.146 60.831 366.653 60.4372 368.039L55.9635 367.036C56.2626 365.835 56.432 364.704 56.4718 363.643C56.4766 362.568 56.2695 361.54 55.8506 360.559C55.4106 359.529 54.895 358.865 54.3036 358.567C53.6772 358.254 53.0452 358.234 52.4076 358.507C51.8926 358.727 51.5525 359.118 51.3872 359.682C51.1974 360.256 51.1091 360.932 51.1221 361.709C51.1107 362.497 51.1219 363.304 51.1559 364.13C51.1792 365.135 51.1289 366.172 51.0051 367.24C50.8707 368.283 50.5439 369.249 50.0246 370.138C49.4808 371.037 48.6326 371.733 47.48 372.225C46.2538 372.749 45.0386 372.891 43.8344 372.651C42.6056 372.422 41.4806 371.859 40.4592 370.961C39.4274 370.039 38.5763 368.793 37.906 367.224C37.267 365.728 36.9589 364.293 36.9816 362.921C36.9938 361.524 37.1529 360.267 37.4589 359.15L41.7697 360.18C41.5444 361.146 41.4295 362.065 41.425 362.937C41.4099 363.784 41.5647 364.588 41.8895 365.348C42.298 366.305 42.7804 366.925 43.3368 367.209C43.8932 367.493 44.4657 367.51 45.0542 367.259C45.5447 367.049 45.883 366.687 46.0693 366.173C46.2309 365.669 46.2982 365.045 46.2711 364.303C46.244 363.561 46.2135 362.776 46.1795 361.95C46.1314 361.158 46.1376 360.358 46.1981 359.55C46.2237 358.727 46.3489 357.934 46.5739 357.171C46.799 356.408 47.1867 355.72 47.7372 355.108C48.2527 354.482 48.9887 353.965 49.9451 353.556C51.1467 353.043 52.3864 352.89 53.6642 353.098C54.907 353.293 56.0846 353.877 57.1969 354.852C58.2741 355.813 59.1951 357.188 59.9598 358.978Z" fill="white"/>
<path d="M52.5494 342.879L30.8843 348.57L29.6648 343.928L32.4546 342.74L32.4241 342.624C31.2585 341.965 30.2016 341.195 29.2532 340.314C28.2791 339.439 27.6057 338.292 27.2331 336.874C26.8266 335.326 26.8367 334 27.2634 332.896C27.6576 331.772 28.393 330.793 29.4697 329.959C28.1413 329.205 26.9737 328.381 25.967 327.488C24.9277 326.575 24.2252 325.422 23.8593 324.03C23.2496 321.708 23.5796 319.816 24.8494 318.352C26.0866 316.869 28.0721 315.768 30.8061 315.05L44.308 311.504L45.7917 317.152L32.9861 320.516C31.3096 320.956 30.2004 321.509 29.6586 322.176C29.1167 322.842 28.9813 323.691 29.2522 324.722C29.4148 325.341 29.7939 325.945 30.3895 326.533C30.9525 327.102 31.7517 327.678 32.7871 328.26L47.6818 324.348L49.1756 330.035L36.37 333.399C34.6935 333.839 33.5844 334.392 33.0425 335.059C32.5006 335.725 32.3652 336.574 32.6362 337.605C32.792 338.198 33.1711 338.802 33.7734 339.416C34.3432 340.011 35.139 340.573 36.1608 341.105L51.0556 337.192L52.5494 342.879Z" fill="white"/>
<path d="M42.5397 291.201C42.7505 293.27 42.4768 295.188 41.7186 296.954C40.9604 298.72 39.7572 300.196 38.1089 301.383C36.458 302.543 34.4122 303.247 31.9715 303.496C30.1675 303.679 28.5209 303.566 27.0315 303.155C25.5395 302.717 24.2394 302.059 23.1312 301.18C21.9939 300.277 21.0977 299.243 20.4428 298.076C19.7586 296.886 19.349 295.628 19.2138 294.302C19.0057 292.259 19.2956 290.5 20.0835 289.026C20.845 287.555 21.9997 286.392 23.5477 285.537C25.0664 284.659 26.8605 284.114 28.9298 283.903C29.4603 283.849 29.9804 283.823 30.4898 283.825C30.9728 283.829 31.3642 283.856 31.6641 283.906L33.063 297.635C34.2406 297.354 35.2123 296.893 35.9779 296.252C36.7435 295.611 37.294 294.831 37.6293 293.913C37.938 292.997 38.0356 291.982 37.9221 290.867C37.8301 289.965 37.6243 289.129 37.3044 288.357C36.958 287.588 36.4909 286.818 35.903 286.047L39.2818 283.693C40.1354 284.705 40.8567 285.864 41.4455 287.171C42.0344 288.478 42.3991 289.821 42.5397 291.201ZM29.1356 298.156L28.2071 289.043C26.7214 289.194 25.576 289.659 24.7708 290.438C23.9364 291.193 23.5935 292.301 23.7422 293.76C23.8206 294.529 24.0806 295.24 24.5223 295.892C24.9375 296.546 25.5408 297.074 26.3323 297.476C27.0972 297.881 28.0317 298.107 29.1356 298.156Z" fill="white"/>
<path d="M40.7192 272.868L18.3268 272.283L18.4522 267.484L21.4227 267.122L21.4258 267.002C20.4919 265.99 19.6937 264.889 19.0312 263.698C18.3688 262.507 18.0574 261.152 18.0971 259.632C18.1605 257.206 19.0061 255.468 20.6342 254.417C22.2355 253.365 24.449 252.876 27.2747 252.95L41.23 253.314L41.0764 259.192L27.8409 258.846C26.1082 258.801 24.8887 259.023 24.1823 259.511C23.4767 259.973 23.1093 260.764 23.08 261.883C23.0563 262.79 23.2487 263.595 23.6571 264.299C24.0662 264.977 24.6732 265.739 25.478 266.587L40.8727 266.99L40.7192 272.868Z" fill="white"/>
<path d="M44.0498 234.599C43.8062 236.342 43.2654 237.707 42.4273 238.694C41.5629 239.677 40.4768 240.319 39.1691 240.621C37.8614 240.923 36.3889 240.959 34.7514 240.731L24.8873 239.352L24.4499 242.481L20.1319 241.878L20.3363 238.392L14.4486 236.883L15.1186 232.089L21.1005 232.926L21.8702 227.419L26.4655 228.061L25.6958 233.568L35.5203 234.941C36.788 235.118 37.7624 234.985 38.4437 234.542C39.125 234.099 39.5339 233.389 39.6705 232.411C39.7222 232.042 39.7229 231.651 39.6726 231.24C39.6223 230.829 39.5647 230.471 39.4996 230.166L43.8769 229.768C43.9768 230.402 44.0639 231.127 44.138 231.945C44.2158 232.737 44.1864 233.622 44.0498 234.599Z" fill="white"/>
<path d="M35.268 184.754C35.5929 183.851 36.1075 183.129 36.8119 182.589C37.5002 182.014 38.2849 181.645 39.1661 181.48C40.0311 181.281 40.9153 181.344 41.8187 181.669C42.6969 181.985 43.4187 182.499 43.9839 183.213C44.5582 183.901 44.9403 184.69 45.1302 185.581C45.3041 186.437 45.2286 187.316 44.9037 188.22C44.5878 189.098 44.0857 189.824 43.3974 190.398C42.684 190.964 41.8822 191.341 40.9921 191.531C40.1109 191.696 39.2312 191.621 38.353 191.305C37.4496 190.98 36.7234 190.478 36.1742 189.798C35.609 189.085 35.2439 188.288 35.0791 187.407C34.8891 186.516 34.9521 185.632 35.268 184.754Z" fill="white"/>
<path d="M72.1272 153.36L47.1181 137.452L56.9078 122.062L61.0928 124.724L54.4805 135.119L60.9943 139.262L66.6406 130.386L70.8257 133.048L65.1794 141.925L75.3045 148.365L72.1272 153.36Z" fill="white"/>
<path d="M87.6811 130.311L70.2238 116.275L73.2314 112.534L76.5933 114.673L76.6685 114.579C76.0435 113.016 75.7805 111.556 75.8796 110.198C75.9787 108.841 76.3959 107.705 77.1311 106.791C77.5321 106.292 77.8911 105.93 78.2082 105.706C78.5212 105.445 78.8299 105.231 79.1343 105.065L82.4918 108.996C82.1413 109.262 81.8367 109.513 81.5779 109.75C81.3151 109.949 81.0249 110.246 80.7074 110.641C80.1727 111.306 79.8644 112.222 79.7824 113.388C79.7172 114.533 80.1075 115.856 80.9534 117.357L91.3655 125.729L87.6811 130.311Z" fill="white"/>
<path d="M109.292 106.713C107.818 108.18 106.156 109.175 104.307 109.699C102.458 110.222 100.553 110.218 98.5936 109.685C96.6528 109.133 94.817 107.988 93.0865 106.249C91.8074 104.964 90.8584 103.613 90.2396 102.198C89.6396 100.763 89.332 99.3386 89.3165 97.9243C89.3012 96.4724 89.5401 95.1247 90.0334 93.8814C90.5268 92.6004 91.246 91.4896 92.1911 90.5491C93.6465 89.1007 95.1949 88.2182 96.8361 87.9016C98.4586 87.5661 100.089 87.7303 101.728 88.3942C103.367 89.0205 104.92 90.0707 106.387 91.5451C106.764 91.9231 107.112 92.3105 107.431 92.7073C107.732 93.0851 107.957 93.4062 108.108 93.6706L98.326 103.405C99.2859 104.143 100.256 104.607 101.236 104.798C102.216 104.989 103.168 104.925 104.093 104.607C104.999 104.27 105.849 103.706 106.643 102.916C107.285 102.276 107.806 101.589 108.203 100.855C108.582 100.102 108.886 99.2539 109.115 98.3116L113.072 99.4526C112.823 100.753 112.377 102.044 111.733 103.324C111.089 104.605 110.275 105.734 109.292 106.713ZM95.4475 100.683L101.94 94.2213C100.887 93.1628 99.8041 92.5663 98.6919 92.4316C97.5798 92.2592 96.504 92.6903 95.4644 93.7248C94.9162 94.2703 94.5281 94.9199 94.3 95.6736C94.0531 96.4084 94.0229 97.2098 94.2093 98.0776C94.377 98.9265 94.7897 99.7949 95.4475 100.683Z" fill="white"/>
<path d="M130.487 88.2268C128.843 89.5014 127.071 90.2847 125.172 90.5766C123.272 90.8685 121.383 90.6295 119.504 89.8596C117.645 89.0734 115.965 87.7109 114.461 85.7721C113.35 84.3391 112.575 82.8821 112.135 81.4009C111.716 79.9035 111.586 78.452 111.745 77.0466C111.908 75.6038 112.311 74.2958 112.954 73.1227C113.601 71.9121 114.452 70.8983 115.505 70.0813C117.128 68.8231 118.773 68.1379 120.441 68.0257C122.092 67.8925 123.69 68.2562 125.235 69.1168C126.784 69.94 128.196 71.1735 129.471 72.8172C129.798 73.2386 130.095 73.6659 130.364 74.099C130.616 74.511 130.8 74.8574 130.917 75.1382L120.011 83.5946C120.873 84.4449 121.778 85.0251 122.727 85.3352C123.676 85.6453 124.629 85.6993 125.586 85.4973C126.527 85.2741 127.44 84.8194 128.325 84.1331C129.041 83.5775 129.642 82.9597 130.127 82.2799C130.596 81.5789 131.002 80.7749 131.345 79.868L135.131 81.4873C134.725 82.7474 134.123 83.9732 133.326 85.1648C132.529 86.3564 131.583 87.3771 130.487 88.2268ZM117.49 80.5388L124.728 74.9257C123.813 73.7456 122.812 73.0202 121.725 72.7497C120.643 72.4417 119.522 72.7371 118.363 73.6358C117.752 74.1097 117.286 74.7066 116.967 75.4265C116.632 76.1253 116.503 76.9168 116.581 77.801C116.643 78.6641 116.946 79.5767 117.49 80.5388Z" fill="white"/>
<path d="M167.483 64.0023L164.54 33.0226L170.976 30.2693L191.35 53.7914L185.613 56.2458L175.679 43.7023C174.654 42.4586 173.62 41.1607 172.577 39.8084C171.549 38.4212 170.516 37.0934 169.481 35.8252L169.334 35.8882C169.62 37.506 169.88 39.1642 170.113 40.8626C170.371 42.5504 170.608 44.1893 170.824 45.7791L172.999 61.6423L167.483 64.0023ZM169.899 54.7021L168.09 50.4729L181.035 44.9348L182.845 49.164L169.899 54.7021Z" fill="white"/>
<path d="M204.938 50.2895C203.505 50.7095 201.963 50.8555 200.314 50.7276C198.69 50.5921 197.214 50.2468 195.884 49.6918L197.409 45.3682C198.566 45.8072 199.669 46.1092 200.718 46.2742C201.785 46.4062 202.83 46.3221 203.854 46.0221C204.928 45.7071 205.649 45.2736 206.015 44.7217C206.399 44.1366 206.494 43.5114 206.299 42.8461C206.141 42.3087 205.793 41.9246 205.253 41.6939C204.705 41.4375 204.045 41.2698 203.271 41.1909C202.49 41.0863 201.688 41.002 200.863 40.938C199.862 40.8423 198.839 40.6697 197.793 40.4205C196.773 40.1637 195.853 39.7249 195.032 39.1041C194.203 38.4577 193.613 37.5331 193.26 36.3304C192.885 35.0509 192.888 33.8274 193.268 32.66C193.641 31.467 194.333 30.4164 195.345 29.5085C196.383 28.593 197.721 27.8952 199.359 27.4152C200.92 26.9577 202.38 26.8214 203.741 27.0062C205.126 27.1836 206.356 27.4903 207.428 27.9262L205.896 32.085C204.963 31.747 204.064 31.5242 203.199 31.4165C202.36 31.3014 201.543 31.3601 200.75 31.5926C199.752 31.8851 199.079 32.2908 198.731 32.8096C198.382 33.3285 198.298 33.895 198.478 34.5091C198.628 35.021 198.948 35.3997 199.437 35.6455C199.918 35.8657 200.529 36.0062 201.269 36.0671C202.01 36.128 202.792 36.1904 203.617 36.2544C204.408 36.3003 205.202 36.4011 205.998 36.5569C206.812 36.6795 207.585 36.8977 208.316 37.2114C209.047 37.5251 209.684 37.9915 210.226 38.6105C210.787 39.1965 211.214 39.9884 211.506 40.9865C211.874 42.2404 211.879 43.4894 211.521 44.7336C211.181 45.9448 210.461 47.0449 209.362 48.0341C208.28 48.9902 206.806 49.742 204.938 50.2895Z" fill="white"/>
<path d="M228.526 44.6705C227.056 44.936 225.508 44.9175 223.882 44.6151C222.282 44.308 220.85 43.8079 219.587 43.1148L221.563 38.9776C222.667 39.537 223.731 39.9544 224.756 40.2299C225.803 40.4743 226.851 40.5017 227.901 40.3121C229.003 40.113 229.766 39.7585 230.188 39.2485C230.633 38.7076 230.793 38.096 230.67 37.4137C230.57 36.8626 230.264 36.4437 229.752 36.1569C229.235 35.8439 228.596 35.607 227.835 35.4464C227.07 35.2595 226.28 35.0904 225.467 34.9392C224.482 34.7378 223.483 34.4576 222.47 34.0987C221.483 33.735 220.614 33.2009 219.864 32.4965C219.108 31.7658 218.619 30.7837 218.397 29.5504C218.159 28.2383 218.292 27.022 218.794 25.9015C219.292 24.7548 220.092 23.7838 221.195 22.9884C222.324 22.1883 223.728 21.6365 225.407 21.3331C227.008 21.0439 228.475 21.0635 229.808 21.3918C231.167 21.7153 232.357 22.1507 233.377 22.6981L231.412 26.6707C230.52 26.2356 229.65 25.9186 228.801 25.7197C227.979 25.516 227.161 25.4876 226.347 25.6346C225.324 25.8195 224.611 26.1514 224.21 26.6304C223.809 27.1093 223.665 27.6637 223.779 28.2935C223.874 28.8183 224.151 29.2289 224.611 29.5252C225.066 29.7952 225.659 29.9998 226.388 30.139C227.118 30.2781 227.89 30.4233 228.703 30.5745C229.485 30.7042 230.263 30.8887 231.038 31.1281C231.835 31.3365 232.58 31.6355 233.273 32.0251C233.967 32.4146 234.551 32.946 235.025 33.6191C235.52 34.2613 235.86 35.0941 236.045 36.1175C236.277 37.4034 236.15 38.6459 235.662 39.8451C235.195 41.0132 234.363 42.0308 233.165 42.8976C231.988 43.7335 230.441 44.3244 228.526 44.6705Z" fill="white"/>
<path d="M255.871 41.3657C253.795 41.4984 251.889 41.1526 250.153 40.3283C248.417 39.504 246.987 38.246 245.863 36.5542C244.766 34.8607 244.14 32.7898 243.983 30.3415C243.867 28.5318 244.043 26.8906 244.51 25.4178C245.004 23.9434 245.711 22.669 246.631 21.5948C247.576 20.4923 248.643 19.6358 249.833 19.0253C251.048 18.3865 252.321 18.0246 253.652 17.9395C255.701 17.8085 257.447 18.1645 258.891 19.0075C260.332 19.8239 261.451 21.0216 262.247 22.6008C263.067 24.1516 263.544 25.9649 263.676 28.0406C263.71 28.5729 263.717 29.0935 263.696 29.6026C263.674 30.085 263.632 30.4751 263.571 30.773L249.799 31.6532C250.035 32.8406 250.459 33.8289 251.07 34.6181C251.682 35.4074 252.44 35.9869 253.346 36.3565C254.25 36.6996 255.26 36.8354 256.378 36.7639C257.283 36.7061 258.127 36.5319 258.91 36.2414C259.691 35.9242 260.478 35.4865 261.271 34.9281L263.496 38.3932C262.453 39.2081 261.267 39.8851 259.939 40.4243C258.61 40.9634 257.254 41.2772 255.871 41.3657ZM249.426 27.7089L258.568 27.1246C258.472 25.6344 258.051 24.4722 257.303 23.6382C256.58 22.7759 255.486 22.3916 254.022 22.4851C253.251 22.5344 252.531 22.7675 251.863 23.1843C251.193 23.5745 250.642 24.1575 250.211 24.9332C249.778 25.6824 249.516 26.6076 249.426 27.7089Z" fill="white"/>
<path d="M280.698 41.2348C279.207 41.1586 277.704 40.7881 276.189 40.1232C274.701 39.4597 273.421 38.6467 272.349 37.684L275.215 34.1057C276.162 34.9017 277.104 35.5506 278.039 36.0524C279.003 36.5288 280.017 36.7943 281.083 36.8487C282.201 36.9059 283.024 36.7344 283.552 36.3341C284.108 35.9086 284.403 35.3496 284.439 34.6572C284.467 34.0979 284.265 33.6203 283.831 33.2243C283.399 32.8017 282.831 32.4255 282.127 32.0958C281.424 31.7395 280.694 31.3951 279.936 31.0627C279.023 30.6422 278.114 30.1418 277.21 29.5615C276.331 28.9826 275.607 28.2647 275.037 27.4078C274.468 26.5243 274.215 25.4567 274.279 24.205C274.347 22.8734 274.753 21.7193 275.497 20.7427C276.243 19.7394 277.243 18.9761 278.498 18.4528C279.78 17.9309 281.273 17.7135 282.977 17.8006C284.602 17.8836 286.026 18.2368 287.249 18.86C288.499 19.4846 289.558 20.1796 290.427 20.9449L287.608 24.3655C286.839 23.7388 286.064 23.2319 285.283 22.8449C284.528 22.4592 283.738 22.2452 282.913 22.203C281.874 22.15 281.105 22.3109 280.605 22.6859C280.105 23.0609 279.839 23.5679 279.806 24.2071C279.779 24.7397 279.956 25.2027 280.336 25.596C280.718 25.9626 281.248 26.2968 281.927 26.5985C282.606 26.9002 283.324 27.2172 284.081 27.5497C284.813 27.8541 285.529 28.2111 286.229 28.6207C286.957 29.005 287.615 29.4659 288.201 30.0032C288.788 30.5405 289.235 31.1908 289.543 31.9542C289.88 32.6923 290.021 33.5807 289.968 34.6194C289.901 35.9243 289.494 37.1051 288.746 38.1616C288.025 39.1928 286.983 39.994 285.619 40.5651C284.283 41.111 282.642 41.3342 280.698 41.2348Z" fill="white"/>
<path d="M304.82 43.7116C303.345 43.4774 301.89 42.9494 300.454 42.1275C299.045 41.3097 297.858 40.3653 296.894 39.2943L300.124 36.0405C300.982 36.9326 301.849 37.6778 302.726 38.2761C303.634 38.8522 304.614 39.2238 305.668 39.3911C306.774 39.5667 307.61 39.4835 308.178 39.1416C308.776 38.7775 309.129 38.2531 309.238 37.5683C309.325 37.0152 309.175 36.5188 308.785 36.079C308.4 35.6129 307.875 35.1785 307.21 34.7759C306.549 34.347 305.86 33.927 305.142 33.5161C304.279 33.001 303.428 32.4069 302.59 31.7338C301.778 31.065 301.134 30.2742 300.658 29.3616C300.186 28.4226 300.049 27.3342 300.245 26.0964C300.454 24.7796 300.98 23.6751 301.824 22.783C302.672 21.8646 303.748 21.2119 305.051 20.8248C306.381 20.4419 307.889 20.3842 309.574 20.6518C311.181 20.9069 312.559 21.4092 313.709 22.1588C314.885 22.9126 315.865 23.7161 316.647 24.5694L313.482 27.6714C312.784 26.9665 312.067 26.3802 311.331 25.9124C310.622 25.4488 309.859 25.1521 309.042 25.0225C308.015 24.8594 307.233 24.9378 306.696 25.2576C306.16 25.5774 305.841 26.0533 305.741 26.6854C305.657 27.2121 305.783 27.6912 306.12 28.1227C306.461 28.5278 306.953 28.9163 307.595 29.2884C308.238 29.6605 308.919 30.052 309.637 30.463C310.332 30.8434 311.006 31.2745 311.659 31.7561C312.342 32.2155 312.947 32.7435 313.473 33.3401C313.999 33.9367 314.375 34.6308 314.6 35.4226C314.856 36.1923 314.902 37.0907 314.739 38.1178C314.535 39.4083 314.004 40.5391 313.148 41.5102C312.322 42.4591 311.201 43.1451 309.784 43.5681C308.397 43.969 306.742 44.0168 304.82 43.7116Z" fill="white"/>
<path d="M322.393 46.0045L329.104 24.6333L333.684 26.0713L333.205 29.0654L333.319 29.1013C334.497 28.465 335.712 27.9799 336.962 27.6459C338.221 27.2866 339.55 27.3266 340.95 27.766C342.476 28.2453 343.593 28.9595 344.302 29.9086C345.043 30.8402 345.481 31.9838 345.614 33.3394C346.959 32.6158 348.278 32.0656 349.57 31.6888C350.896 31.2945 352.246 31.313 353.62 31.7444C355.909 32.4634 357.336 33.7499 357.9 35.604C358.497 37.4406 358.372 39.7073 357.526 42.4042L353.343 55.723L347.772 53.9734L351.738 41.3415C352.257 39.6878 352.379 38.4543 352.104 37.641C351.828 36.8277 351.181 36.2613 350.163 35.9418C349.553 35.75 348.84 35.7499 348.025 35.9412C347.244 36.1152 346.331 36.4854 345.287 37.0518L340.673 51.7445L335.063 49.983L339.03 37.3511C339.549 35.6974 339.671 34.4639 339.395 33.6506C339.12 32.8373 338.473 32.2709 337.455 31.9513C336.87 31.7676 336.157 31.7674 335.317 31.9508C334.51 32.1167 333.61 32.4909 332.617 33.0734L328.003 47.7661L322.393 46.0045Z" fill="white"/>
<path d="M371.474 65.0292C369.609 64.1066 368.132 62.8544 367.04 61.2728C365.948 59.6911 365.339 57.8868 365.211 55.8599C365.107 53.8449 365.6 51.738 366.688 49.5392C367.492 47.914 368.465 46.5803 369.605 45.5381C370.77 44.5078 372.019 43.7573 373.353 43.2868C374.722 42.8042 376.075 42.5959 377.411 42.662C378.783 42.7161 380.066 43.0388 381.261 43.6302C383.101 44.541 384.436 45.7222 385.265 47.1738C386.105 48.6015 386.475 50.198 386.375 51.9634C386.311 53.7168 385.817 55.5256 384.895 57.3897C384.658 57.8677 384.404 58.322 384.131 58.7524C383.87 59.1589 383.639 59.4759 383.437 59.7033L371.069 53.5821C370.68 54.7286 370.554 55.7964 370.689 56.7857C370.824 57.775 371.191 58.656 371.791 59.4288C372.402 60.1776 373.209 60.8004 374.213 61.2972C375.026 61.6994 375.844 61.9703 376.667 62.1101C377.503 62.2259 378.403 62.2402 379.369 62.1528L379.564 66.2664C378.253 66.4506 376.888 66.4442 375.468 66.2473C374.048 66.0503 372.716 65.6443 371.474 65.0292ZM372.718 49.9797L380.928 54.0428C381.59 52.7044 381.806 51.4871 381.575 50.3909C381.379 49.2826 380.625 48.4032 379.31 47.7526C378.617 47.4096 377.877 47.2516 377.09 47.2786C376.315 47.2818 375.546 47.5115 374.785 47.9678C374.036 48.4002 373.347 49.0708 372.718 49.9797Z" fill="white"/>
<path d="M387.965 73.2437L400.376 54.5963L404.372 57.2558L403.098 59.9637L403.198 60.0302C404.551 59.7777 405.908 59.6879 407.269 59.7608C408.63 59.8337 409.943 60.2912 411.209 61.1334C413.229 62.4779 414.251 64.1191 414.274 66.0568C414.313 67.9723 413.549 70.1067 411.983 72.4598L404.248 84.0812L399.353 80.8233L406.689 69.8013C407.649 68.3583 408.111 67.2079 408.073 66.35C408.058 65.5069 407.584 64.775 406.651 64.1545C405.897 63.6521 405.112 63.3865 404.299 63.3575C403.508 63.3433 402.539 63.4513 401.393 63.6815L392.86 76.5016L387.965 73.2437Z" fill="white"/>
<path d="M418.593 96.4277C417.247 95.2939 416.379 94.1097 415.99 92.875C415.617 91.62 415.651 90.3586 416.091 89.0907C416.532 87.8229 417.284 86.5567 418.349 85.2922L424.766 77.6744L422.349 75.6386L425.158 72.3039L428 74.3316L432.411 70.1501L436.113 73.2681L432.222 77.8877L436.474 81.4696L433.485 85.0184L429.233 81.4366L422.842 89.0238C422.017 90.0028 421.611 90.8987 421.624 91.7114C421.637 92.524 422.021 93.2482 422.775 93.8838C423.061 94.1243 423.391 94.3326 423.766 94.5087C424.14 94.6848 424.474 94.8266 424.767 94.934L422.775 98.8517C422.186 98.5994 421.525 98.2869 420.793 97.9143C420.081 97.5589 419.348 97.0633 418.593 96.4277Z" fill="white"/>
<path d="M465.468 115.516C466.06 116.272 466.397 117.092 466.479 117.976C466.599 118.864 466.495 119.725 466.165 120.559C465.873 121.397 465.35 122.112 464.594 122.704C463.859 123.28 463.039 123.617 462.134 123.716C461.246 123.836 460.375 123.739 459.52 123.427C458.703 123.118 457.998 122.586 457.406 121.83C456.83 121.096 456.483 120.284 456.363 119.396C456.264 118.491 456.371 117.611 456.684 116.756C457.013 115.923 457.545 115.218 458.28 114.643C459.036 114.051 459.847 113.703 460.715 113.599C461.619 113.5 462.489 113.616 463.322 113.945C464.177 114.258 464.892 114.782 465.468 115.516Z" fill="white"/>
<path d="M472.434 163.43L499.211 150.721L507.032 167.199L502.551 169.326L497.268 158.196L490.294 161.506L494.804 171.01L490.324 173.136L485.813 163.633L474.972 168.778L472.434 163.43Z" fill="white"/>
<path d="M483.671 188.863L504.845 181.552L506.411 186.089L502.812 187.798L502.851 187.911C504.507 188.214 505.884 188.768 506.98 189.574C508.077 190.381 508.816 191.338 509.199 192.447C509.408 193.052 509.523 193.549 509.544 193.936C509.599 194.34 509.616 194.716 509.594 195.062L504.479 195.812C504.441 195.374 504.39 194.983 504.327 194.637C504.299 194.309 504.202 193.905 504.036 193.426C503.758 192.62 503.147 191.871 502.203 191.182C501.268 190.517 499.94 190.143 498.219 190.061L485.591 194.421L483.671 188.863Z" fill="white"/>
<path d="M492.151 219.718C491.694 217.689 491.735 215.753 492.276 213.908C492.817 212.064 493.834 210.454 495.328 209.078C496.828 207.729 498.774 206.784 501.167 206.244C502.936 205.845 504.585 205.76 506.113 205.99C507.646 206.245 509.016 206.743 510.222 207.482C511.459 208.242 512.473 209.161 513.263 210.24C514.085 211.34 514.643 212.54 514.936 213.84C515.388 215.843 515.312 217.624 514.706 219.182C514.127 220.734 513.12 222.027 511.686 223.062C510.284 224.116 508.568 224.872 506.539 225.33C506.019 225.447 505.505 225.536 504.999 225.595C504.519 225.649 504.128 225.669 503.824 225.655L500.787 212.194C499.652 212.614 498.743 213.188 498.059 213.916C497.376 214.644 496.923 215.484 496.701 216.437C496.504 217.383 496.529 218.403 496.776 219.495C496.975 220.38 497.28 221.186 497.69 221.913C498.126 222.635 498.682 223.343 499.359 224.038L496.287 226.781C495.318 225.879 494.463 224.815 493.721 223.588C492.98 222.361 492.457 221.071 492.151 219.718ZM504.624 211.205L506.639 220.141C508.096 219.812 509.177 219.213 509.883 218.343C510.621 217.493 510.829 216.353 510.506 214.922C510.336 214.168 509.992 213.493 509.475 212.899C508.985 212.299 508.322 211.847 507.488 211.543C506.68 211.233 505.726 211.121 504.624 211.205Z" fill="white"/>
<path d="M496.524 247.5C496.32 245.43 496.599 243.513 497.363 241.75C498.127 239.986 499.335 238.514 500.986 237.332C502.641 236.177 504.689 235.479 507.13 235.238C508.935 235.06 510.581 235.179 512.069 235.594C513.56 236.037 514.858 236.699 515.963 237.581C517.098 238.487 517.991 239.525 518.642 240.693C519.323 241.885 519.729 243.145 519.86 244.472C520.062 246.515 519.766 248.273 518.974 249.744C518.208 251.213 517.049 252.373 515.499 253.223C513.977 254.096 512.182 254.636 510.112 254.84C509.581 254.892 509.061 254.917 508.551 254.914C508.068 254.908 507.677 254.88 507.377 254.829L506.021 241.096C504.842 241.373 503.869 241.831 503.102 242.469C502.334 243.108 501.781 243.886 501.443 244.804C501.132 245.719 501.031 246.733 501.141 247.848C501.23 248.75 501.433 249.588 501.751 250.36C502.095 251.13 502.56 251.902 503.145 252.674L499.759 255.019C498.909 254.004 498.191 252.842 497.606 251.533C497.021 250.224 496.661 248.88 496.524 247.5ZM509.95 240.587L510.85 249.703C512.336 249.556 513.483 249.094 514.291 248.318C515.127 247.565 515.474 246.459 515.33 245C515.254 244.23 514.996 243.518 514.556 242.865C514.143 242.209 513.541 241.679 512.751 241.275C511.987 240.868 511.054 240.639 509.95 240.587Z" fill="white"/>
<path d="M497.347 291.714L525.143 305.708L524.049 312.622L493.292 317.355L494.267 311.192L510.173 309.455C511.772 309.249 513.421 309.064 515.121 308.901C516.842 308.769 518.516 308.601 520.141 308.399L520.166 308.241C518.644 307.623 517.101 306.96 515.539 306.254C513.973 305.574 512.459 304.903 510.998 304.24L496.41 297.64L497.347 291.714ZM503.936 298.709L508.479 299.427L506.279 313.335L501.736 312.616L503.936 298.709Z" fill="white"/>
<path d="M489.027 330.722C489.434 329.286 490.13 327.903 491.116 326.575C492.095 325.272 493.173 324.206 494.351 323.375L497.2 326.967C496.212 327.713 495.37 328.486 494.672 329.286C493.992 330.119 493.507 331.049 493.217 332.075C492.912 333.153 492.895 333.994 493.168 334.597C493.458 335.234 493.937 335.647 494.604 335.836C495.143 335.989 495.654 335.898 496.137 335.563C496.645 335.236 497.139 334.766 497.617 334.153C498.121 333.548 498.62 332.913 499.113 332.249C499.726 331.452 500.417 330.678 501.184 329.925C501.944 329.198 502.806 328.652 503.768 328.288C504.757 327.93 505.854 327.922 507.059 328.264C508.342 328.627 509.377 329.28 510.163 330.223C510.975 331.174 511.495 332.319 511.726 333.659C511.949 335.025 511.827 336.529 511.362 338.171C510.919 339.736 510.257 341.045 509.377 342.099C508.489 343.178 507.575 344.055 506.636 344.731L503.93 341.221C504.712 340.611 505.379 339.969 505.931 339.293C506.475 338.644 506.86 337.921 507.085 337.126C507.369 336.125 507.383 335.34 507.129 334.769C506.875 334.198 506.44 333.825 505.825 333.651C505.311 333.506 504.821 333.574 504.353 333.858C503.91 334.148 503.466 334.59 503.02 335.185C502.575 335.779 502.106 336.408 501.613 337.073C501.153 337.718 500.645 338.337 500.089 338.928C499.552 339.552 498.957 340.09 498.302 340.542C497.647 340.994 496.914 341.285 496.101 341.415C495.306 341.578 494.409 341.518 493.408 341.234C492.151 340.878 491.091 340.218 490.228 339.252C489.383 338.32 488.835 337.126 488.582 335.668C488.348 334.244 488.496 332.595 489.027 330.722Z" fill="white"/>
<path d="M481.232 353.684C481.789 352.298 482.628 350.997 483.75 349.781C484.861 348.59 486.047 347.644 487.306 346.943L489.757 350.818C488.696 351.454 487.776 352.134 486.997 352.855C486.233 353.611 485.652 354.484 485.254 355.474C484.837 356.513 484.731 357.347 484.938 357.976C485.159 358.64 485.592 359.102 486.235 359.36C486.755 359.569 487.272 359.533 487.788 359.252C488.328 358.981 488.868 358.566 489.409 358.007C489.975 357.459 490.538 356.88 491.099 356.272C491.793 355.546 492.562 354.849 493.405 354.182C494.238 353.54 495.153 353.088 496.149 352.828C497.169 352.577 498.261 352.686 499.424 353.153C500.661 353.651 501.62 354.41 502.301 355.432C503.008 356.463 503.404 357.657 503.49 359.014C503.567 360.396 503.287 361.878 502.65 363.462C502.043 364.971 501.246 366.203 500.259 367.156C499.262 368.135 498.26 368.911 497.254 369.483L494.936 365.705C495.779 365.182 496.51 364.614 497.13 364.001C497.74 363.413 498.2 362.735 498.508 361.968C498.896 361.004 498.994 360.224 498.802 359.629C498.61 359.035 498.217 358.618 497.624 358.379C497.129 358.18 496.634 358.197 496.138 358.428C495.667 358.67 495.179 359.063 494.673 359.607C494.166 360.15 493.633 360.726 493.072 361.334C492.546 361.928 491.976 362.488 491.361 363.017C490.76 363.581 490.111 364.052 489.412 364.432C488.713 364.812 487.953 365.024 487.13 365.067C486.323 365.144 485.437 364.989 484.472 364.601C483.26 364.114 482.276 363.344 481.52 362.293C480.779 361.276 480.361 360.03 480.265 358.554C480.183 357.113 480.506 355.49 481.232 353.684Z" fill="white"/>
<path d="M469.479 378.594C470.471 376.766 471.778 375.336 473.4 374.305C475.022 373.273 476.848 372.732 478.878 372.681C480.895 372.654 482.982 373.225 485.138 374.395C486.732 375.26 488.028 376.282 489.027 377.462C490.012 378.664 490.715 379.941 491.135 381.291C491.566 382.678 491.723 384.038 491.606 385.37C491.501 386.739 491.13 388.009 490.494 389.181C489.514 390.986 488.284 392.275 486.802 393.048C485.343 393.834 483.734 394.144 481.974 393.977C480.224 393.847 478.435 393.286 476.607 392.293C476.138 392.039 475.694 391.767 475.274 391.479C474.878 391.203 474.57 390.96 474.35 390.75L480.933 378.621C479.802 378.189 478.74 378.022 477.746 378.12C476.753 378.218 475.858 378.552 475.064 379.122C474.292 379.704 473.639 380.488 473.105 381.472C472.673 382.269 472.371 383.076 472.2 383.894C472.053 384.724 472.005 385.623 472.056 386.592L467.938 386.632C467.803 385.315 467.861 383.951 468.111 382.539C468.362 381.127 468.818 379.812 469.479 378.594ZM484.471 380.405L480.101 388.455C481.414 389.168 482.622 389.429 483.726 389.24C484.841 389.086 485.748 388.365 486.448 387.076C486.817 386.396 487.003 385.663 487.005 384.875C487.031 384.1 486.831 383.324 486.403 382.546C486 381.781 485.355 381.067 484.471 380.405Z" fill="white"/>
<path d="M456.378 399.684C457.236 398.462 458.35 397.387 459.719 396.458C461.072 395.551 462.442 394.9 463.828 394.505L465.332 398.836C464.154 399.214 463.103 399.666 462.181 400.191C461.265 400.753 460.5 401.471 459.887 402.344C459.243 403.26 458.951 404.049 459.009 404.708C459.073 405.405 459.389 405.953 459.957 406.352C460.415 406.673 460.927 406.756 461.493 406.6C462.081 406.458 462.702 406.177 463.356 405.757C464.031 405.351 464.711 404.917 465.396 404.452C466.238 403.903 467.145 403.4 468.118 402.942C469.075 402.507 470.069 402.276 471.098 402.249C472.148 402.237 473.187 402.591 474.212 403.312C475.304 404.078 476.065 405.036 476.496 406.186C476.948 407.351 477.062 408.604 476.837 409.945C476.597 411.308 475.987 412.687 475.006 414.084C474.071 415.415 473.015 416.433 471.836 417.137C470.642 417.863 469.49 418.39 468.38 418.718L466.984 414.511C467.923 414.194 468.765 413.807 469.509 413.352C470.237 412.918 470.838 412.363 471.313 411.687C471.911 410.835 472.184 410.098 472.132 409.476C472.081 408.853 471.793 408.358 471.269 407.99C470.833 407.684 470.347 407.587 469.812 407.7C469.298 407.828 468.733 408.099 468.116 408.513C467.5 408.927 466.849 409.367 466.165 409.831C465.517 410.289 464.834 410.705 464.115 411.08C463.402 411.492 462.662 411.803 461.895 412.014C461.128 412.224 460.339 412.257 459.529 412.112C458.725 412.004 457.898 411.651 457.046 411.053C455.977 410.302 455.194 409.329 454.698 408.133C454.208 406.975 454.084 405.666 454.327 404.207C454.576 402.785 455.259 401.277 456.378 399.684Z" fill="white"/>
<path d="M441.445 418.789C442.428 417.665 443.65 416.714 445.11 415.936C446.552 415.178 447.983 414.676 449.403 414.429L450.439 418.896C449.227 419.147 448.135 419.485 447.161 419.909C446.191 420.371 445.354 421.003 444.652 421.806C443.915 422.649 443.54 423.402 443.528 424.064C443.518 424.764 443.774 425.342 444.296 425.798C444.717 426.167 445.218 426.304 445.797 426.208C446.397 426.13 447.044 425.917 447.739 425.568C448.453 425.237 449.176 424.876 449.906 424.487C450.801 424.031 451.757 423.626 452.773 423.275C453.771 422.944 454.783 422.819 455.809 422.902C456.855 423.002 457.85 423.464 458.794 424.289C459.797 425.167 460.452 426.201 460.759 427.389C461.085 428.596 461.065 429.854 460.699 431.164C460.316 432.493 459.563 433.801 458.439 435.085C457.368 436.31 456.209 437.209 454.963 437.784C453.699 438.379 452.497 438.781 451.358 438.989L450.416 434.658C451.385 434.442 452.263 434.147 453.05 433.773C453.82 433.419 454.477 432.931 455.022 432.309C455.706 431.526 456.056 430.822 456.071 430.198C456.086 429.573 455.852 429.05 455.371 428.629C454.969 428.278 454.496 428.13 453.952 428.185C453.428 428.258 452.837 428.468 452.18 428.814C451.523 429.16 450.829 429.528 450.099 429.917C449.407 430.304 448.683 430.645 447.928 430.941C447.176 431.275 446.407 431.506 445.622 431.634C444.837 431.762 444.049 431.711 443.259 431.481C442.471 431.288 441.686 430.849 440.903 430.164C439.919 429.304 439.244 428.253 438.877 427.011C438.513 425.807 438.529 424.493 438.925 423.068C439.324 421.681 440.164 420.254 441.445 418.789Z" fill="white"/>
<path d="M430.153 432.448L444.676 449.502L441.021 452.614L438.741 450.615L438.65 450.693C438.562 452.029 438.326 453.315 437.943 454.552C437.578 455.809 436.837 456.913 435.72 457.864C434.502 458.901 433.303 459.467 432.122 459.562C430.939 459.694 429.738 459.456 428.519 458.848C428.416 460.371 428.18 461.781 427.811 463.075C427.44 464.408 426.706 465.541 425.61 466.474C423.782 468.03 421.934 468.554 420.064 468.044C418.191 467.573 416.339 466.261 414.506 464.109L405.455 453.48L409.901 449.694L418.485 459.774C419.609 461.094 420.589 461.853 421.424 462.053C422.259 462.252 423.083 462.006 423.895 461.314C424.382 460.899 424.762 460.296 425.033 459.504C425.302 458.75 425.474 457.781 425.55 456.595L415.565 444.87L420.042 441.058L428.626 451.138C429.75 452.458 430.73 453.217 431.565 453.417C432.4 453.616 433.224 453.37 434.036 452.678C434.503 452.281 434.882 451.677 435.174 450.868C435.463 450.097 435.625 449.136 435.661 447.985L425.676 436.26L430.153 432.448Z" fill="white"/>
<path d="M387.928 463.878C389.701 462.791 391.547 462.206 393.467 462.123C395.387 462.041 397.239 462.485 399.023 463.455C400.785 464.44 402.306 465.978 403.589 468.069C404.537 469.615 405.149 471.148 405.424 472.668C405.677 474.203 405.647 475.66 405.336 477.039C405.016 478.455 404.472 479.712 403.705 480.808C402.93 481.94 401.974 482.855 400.837 483.552C399.087 484.625 397.376 485.127 395.706 485.056C394.05 485.008 392.502 484.472 391.06 483.448C389.61 482.46 388.341 481.08 387.254 479.307C386.975 478.852 386.726 478.395 386.506 477.935C386.301 477.498 386.156 477.133 386.071 476.842L397.835 469.627C397.071 468.688 396.234 468.012 395.325 467.6C394.415 467.188 393.474 467.031 392.501 467.127C391.541 467.246 390.584 467.598 389.629 468.184C388.857 468.658 388.192 469.206 387.635 469.829C387.093 470.474 386.602 471.229 386.162 472.093L382.575 470.07C383.116 468.862 383.849 467.709 384.771 466.612C385.693 465.514 386.745 464.603 387.928 463.878ZM400.007 472.94L392.198 477.729C392.979 479.002 393.895 479.832 394.946 480.22C395.988 480.644 397.135 480.473 398.385 479.707C399.044 479.302 399.572 478.76 399.968 478.079C400.377 477.421 400.592 476.648 400.611 475.761C400.643 474.896 400.442 473.956 400.007 472.94Z" fill="white"/>
<path d="M372.197 473.469L381.381 493.9L377.003 495.868L375.388 493.349L375.278 493.398C374.772 494.678 374.126 495.875 373.34 496.988C372.554 498.102 371.468 498.97 370.082 499.593C367.868 500.588 365.935 500.58 364.282 499.569C362.639 498.582 361.239 496.8 360.08 494.221L354.356 481.489L359.72 479.078L365.148 491.154C365.858 492.735 366.587 493.738 367.333 494.162C368.055 494.598 368.927 494.586 369.949 494.127C370.776 493.755 371.418 493.233 371.875 492.559C372.309 491.897 372.733 491.019 373.148 489.926L366.834 475.88L372.197 473.469Z" fill="white"/>
<path d="M336.27 487.064C337.946 486.528 339.411 486.423 340.663 486.75C341.924 487.103 342.974 487.803 343.813 488.85C344.652 489.898 345.324 491.209 345.827 492.784L348.863 502.27L351.872 501.307L353.201 505.459L349.972 506.787L351.165 512.747L346.555 514.222L344.715 508.469L339.419 510.163L338.005 505.744L343.301 504.05L340.277 494.601C339.887 493.382 339.345 492.562 338.65 492.14C337.955 491.719 337.138 491.658 336.198 491.959C335.843 492.073 335.49 492.241 335.142 492.465C334.794 492.688 334.496 492.896 334.249 493.087L331.992 489.315C332.52 488.95 333.136 488.557 333.841 488.135C334.52 487.722 335.33 487.365 336.27 487.064Z" fill="white"/>
<path d="M295.165 516.593C294.21 516.692 293.336 516.541 292.544 516.141C291.728 515.77 291.055 515.223 290.524 514.5C289.97 513.807 289.643 512.983 289.544 512.028C289.448 511.1 289.599 510.226 289.996 509.408C290.368 508.592 290.913 507.905 291.633 507.348C292.329 506.82 293.154 506.507 294.109 506.408C295.037 506.311 295.909 506.449 296.725 506.82C297.544 507.218 298.232 507.776 298.789 508.496C299.32 509.219 299.633 510.044 299.73 510.972C299.829 511.927 299.691 512.799 299.317 513.589C298.919 514.408 298.359 515.082 297.637 515.613C296.917 516.17 296.093 516.497 295.165 516.593Z" fill="white"/>
</svg>
